<svg id="icons" xmlns="http://www.w3.org/2000/svg" viewBox="0 0 128 128"><defs><style>.cls-1{fill:#fff}.cls-2{fill:#303442;opacity:.08}.cls-5{fill:none;stroke:#303442;stroke-linecap:round;stroke-linejoin:round;stroke-width:4px}</style></defs><path class="cls-1" d="M102 39.66V94a3.999 3.999 0 01-4 4h-6V51.66a4.008 4.008 0 00-1.17-2.83L81 39l1-1h19.64a4.058 4.058 0 01.36 1.66z"/><path class="cls-2" d="M102 88v6a4 4 0 01-4 4h-6V88z"/><path d="M92 98v8a3.999 3.999 0 01-4 4H30a3.999 3.999 0 01-4-4V34a3.999 3.999 0 014-4h40.34a4.058 4.058 0 011.66.36V50h19.64a4.058 4.058 0 01.36 1.66z" fill="#ffe300"/><path class="cls-2" d="M92 100v6a3.999 3.999 0 01-4 4H30a3.999 3.999 0 01-4-4v-6z"/><path class="cls-1" d="M101.64 38H82V18.36a4.09 4.09 0 011.17.81l17.66 17.66a4.09 4.09 0 01.81 1.17zM82 18.36V38l-1 1-7.83-7.83A4.008 4.008 0 0070.34 30H36v-8a3.999 3.999 0 014-4h40.34a4.058 4.058 0 011.66.36z"/><path d="M90.83 48.83a4.09 4.09 0 01.81 1.17H72V30.36a4.09 4.09 0 011.17.81L81 39z" fill="#f54b55"/><path class="cls-5" d="M91.64 50a4.09 4.09 0 00-.81-1.17L81 39l-7.83-7.83A4.008 4.008 0 0070.34 30H30a3.999 3.999 0 00-4 4v72a3.999 3.999 0 004 4h58a3.999 3.999 0 004-4V51.66a4.058 4.058 0 00-.36-1.66z"/><path class="cls-5" d="M72 30.36V50h19.64"/><path class="cls-5" d="M92 98h6a3.999 3.999 0 004-4V39.66a4.008 4.008 0 00-1.17-2.83L83.17 19.17A4.008 4.008 0 0080.34 18H40a3.999 3.999 0 00-4 4v8"/><path class="cls-5" d="M82 18.36V38h19.64M80 58H38m22-12H38m42 24H38m42 12H38m30 12H38"/></svg>